<svg xmlns="http://www.w3.org/2000/svg" xmlns:xlink="http://www.w3.org/1999/xlink" width="500" zoomAndPan="magnify" viewBox="0 0 375 374.999991" height="500" preserveAspectRatio="xMidYMid meet" version="1.0"><defs><g/></defs><g fill="#a6a6a6" fill-opacity="1"><g transform="translate(170.769191, 192.779295)"><g><path d="M 138.4375 -10.03125 C 138.4375 -0.195312 136.859375 8.75 133.703125 16.8125 C 130.554688 24.882812 126.082031 31.773438 120.28125 37.484375 C 114.476562 43.191406 107.539062 47.617188 99.46875 50.765625 C 91.40625 53.921875 82.453125 55.5 72.609375 55.5 C 63.753906 55.5 55.289062 54.117188 47.21875 51.359375 C 39.15625 48.609375 32.070312 44.625 25.96875 39.40625 C 19.875 34.1875 15.003906 27.835938 11.359375 20.359375 C 7.722656 12.890625 5.90625 4.429688 5.90625 -5.015625 C 5.90625 -14.066406 7.476562 -21.835938 10.625 -28.328125 C 13.769531 -34.828125 18.046875 -40.191406 23.453125 -44.421875 C 28.867188 -48.648438 35.21875 -51.796875 42.5 -53.859375 C 49.78125 -55.929688 57.554688 -56.96875 65.828125 -56.96875 L 65.828125 -55.78125 C 58.742188 -55.394531 52.195312 -53.675781 46.1875 -50.625 C 40.1875 -47.570312 35.070312 -43.582031 30.84375 -38.65625 C 26.613281 -33.738281 23.316406 -28.128906 20.953125 -21.828125 C 18.597656 -15.535156 17.421875 -8.847656 17.421875 -1.765625 C 17.421875 6.296875 18.75 13.625 21.40625 20.21875 C 24.0625 26.8125 27.75 32.46875 32.46875 37.1875 C 37.1875 41.914062 42.890625 45.554688 49.578125 48.109375 C 56.273438 50.671875 63.660156 51.953125 71.734375 51.953125 C 87.671875 51.953125 100.113281 47.273438 109.0625 37.921875 C 118.019531 28.578125 122.5 15.9375 122.5 0 C 122.5 -8.457031 120.578125 -16.179688 116.734375 -23.171875 C 112.898438 -30.160156 108.078125 -36.753906 102.265625 -42.953125 C 96.460938 -49.148438 90.164062 -55.097656 83.375 -60.796875 C 76.59375 -66.503906 70.296875 -72.210938 64.484375 -77.921875 C 58.679688 -83.628906 53.863281 -89.53125 50.03125 -95.625 C 46.195312 -101.726562 44.28125 -108.320312 44.28125 -115.40625 C 44.28125 -120.53125 45.210938 -125.15625 47.078125 -129.28125 C 48.953125 -133.414062 51.507812 -136.859375 54.75 -139.609375 C 58 -142.367188 61.785156 -144.484375 66.109375 -145.953125 C 70.441406 -147.429688 75.066406 -148.171875 79.984375 -148.171875 C 81.953125 -148.171875 83.867188 -147.972656 85.734375 -147.578125 C 87.609375 -147.191406 89.429688 -146.800781 91.203125 -146.40625 L 98.59375 -144.046875 C 102.519531 -142.859375 106.253906 -142.265625 109.796875 -142.265625 C 112.554688 -142.265625 114.722656 -143.347656 116.296875 -145.515625 L 114.234375 -111.28125 C 113.441406 -115.21875 112.0625 -119.25 110.09375 -123.375 C 108.125 -127.507812 105.613281 -131.25 102.5625 -134.59375 C 99.519531 -137.9375 96.078125 -140.738281 92.234375 -143 C 88.398438 -145.269531 84.222656 -146.40625 79.703125 -146.40625 C 72.421875 -146.40625 66.171875 -144.4375 60.953125 -140.5 C 55.734375 -136.5625 53.125 -130.660156 53.125 -122.796875 C 53.125 -116.691406 55.238281 -110.832031 59.46875 -105.21875 C 63.707031 -99.613281 68.972656 -94.101562 75.265625 -88.6875 C 81.566406 -83.28125 88.40625 -77.769531 95.78125 -72.15625 C 103.164062 -66.550781 110.003906 -60.597656 116.296875 -54.296875 C 122.597656 -48.003906 127.863281 -41.21875 132.09375 -33.9375 C 136.320312 -26.65625 138.4375 -18.6875 138.4375 -10.03125 Z M 138.4375 -10.03125 "/></g></g></g><g fill="#ffffff" fill-opacity="1"><g transform="translate(47.395197, 234.904482)"><g><path d="M 215.1875 26.5625 C 207.707031 31.675781 200.226562 35.414062 192.75 37.78125 C 185.269531 40.144531 176.90625 41.328125 167.65625 41.328125 C 157.03125 41.328125 148.125 38.914062 140.9375 34.09375 C 133.757812 29.269531 127.515625 23.21875 122.203125 15.9375 C 116.890625 8.65625 112.164062 0.738281 108.03125 -7.8125 C 103.894531 -16.375 99.46875 -24.296875 94.75 -31.578125 C 90.03125 -38.859375 84.617188 -44.910156 78.515625 -49.734375 C 72.410156 -54.554688 64.929688 -56.96875 56.078125 -56.96875 L 38.96875 -56.96875 L 38.96875 -18.296875 C 38.96875 -14.359375 39.753906 -10.617188 41.328125 -7.078125 C 42.898438 -3.535156 45.753906 -1.175781 49.890625 0 L 10.328125 0 C 14.660156 -0.976562 17.515625 -3.382812 18.890625 -7.21875 C 20.265625 -11.0625 20.953125 -14.953125 20.953125 -18.890625 L 20.953125 -126.921875 C 20.953125 -130.859375 20.210938 -134.546875 18.734375 -137.984375 C 17.265625 -141.429688 14.460938 -143.648438 10.328125 -144.640625 L 60.515625 -144.640625 C 67.597656 -144.640625 74.53125 -143.847656 81.3125 -142.265625 C 88.101562 -140.691406 94.15625 -138.179688 99.46875 -134.734375 C 104.78125 -131.296875 109.0625 -126.769531 112.3125 -121.15625 C 115.5625 -115.550781 117.1875 -108.71875 117.1875 -100.65625 C 117.1875 -93.96875 115.757812 -87.960938 112.90625 -82.640625 C 110.050781 -77.328125 106.359375 -72.847656 101.828125 -69.203125 C 97.304688 -65.566406 92.09375 -62.71875 86.1875 -60.65625 C 80.28125 -58.59375 74.179688 -57.460938 67.890625 -57.265625 C 74.972656 -55.691406 81.367188 -52.34375 87.078125 -47.21875 C 92.785156 -42.101562 98.34375 -36.148438 103.75 -29.359375 C 109.164062 -22.578125 114.476562 -15.492188 119.6875 -8.109375 C 124.90625 -0.734375 130.515625 6.050781 136.515625 12.25 C 142.515625 18.445312 149.101562 23.5625 156.28125 27.59375 C 163.46875 31.632812 171.488281 33.65625 180.34375 33.65625 C 186.84375 33.65625 192.695312 32.914062 197.90625 31.4375 C 203.125 29.957031 208.488281 27.546875 214 24.203125 Z M 38.96875 -59.03125 L 58.734375 -59.03125 C 71.328125 -59.03125 81.164062 -62.867188 88.25 -70.546875 C 95.332031 -78.222656 98.875 -88.257812 98.875 -100.65625 C 98.875 -113.644531 95.476562 -123.78125 88.6875 -131.0625 C 81.90625 -138.34375 71.921875 -141.984375 58.734375 -141.984375 L 38.96875 -141.984375 Z M 38.96875 -59.03125 "/></g></g></g><g fill="#ffffff" fill-opacity="1"><g transform="translate(49.637451, 330.182878)"><g><path d="M 15 -0.296875 C 15.050781 -0.296875 15.078125 -0.242188 15.078125 -0.140625 C 15.078125 -0.046875 15.050781 0 15 0 L 11.296875 0 C 11.066406 0 10.757812 -0.265625 10.375 -0.796875 C 10 -1.328125 9.570312 -2.160156 9.09375 -3.296875 C 8.613281 -4.429688 8.109375 -5.859375 7.578125 -7.578125 C 7.054688 -7.503906 6.578125 -7.46875 6.140625 -7.46875 L 5.859375 -7.46875 L 4.890625 -1.984375 C 4.816406 -1.523438 4.78125 -1.25 4.78125 -1.15625 C 4.78125 -0.8125 4.878906 -0.582031 5.078125 -0.46875 C 5.273438 -0.351562 5.628906 -0.296875 6.140625 -0.296875 C 6.203125 -0.296875 6.234375 -0.242188 6.234375 -0.140625 C 6.234375 -0.046875 6.207031 0 6.15625 0 C 5.65625 0 5.265625 -0.0078125 4.984375 -0.03125 L 3.34375 -0.046875 L 1.640625 -0.03125 C 1.367188 -0.0078125 0.976562 0 0.46875 0 C 0.40625 0 0.375 -0.046875 0.375 -0.140625 C 0.375 -0.242188 0.40625 -0.296875 0.46875 -0.296875 C 0.957031 -0.296875 1.320312 -0.335938 1.5625 -0.421875 C 1.8125 -0.515625 2 -0.679688 2.125 -0.921875 C 2.257812 -1.160156 2.378906 -1.515625 2.484375 -1.984375 L 4.46875 -13.359375 C 4.53125 -13.660156 4.5625 -13.9375 4.5625 -14.1875 C 4.5625 -14.53125 4.460938 -14.757812 4.265625 -14.875 C 4.078125 -14.988281 3.71875 -15.046875 3.1875 -15.046875 C 3.125 -15.046875 3.09375 -15.09375 3.09375 -15.1875 C 3.09375 -15.289062 3.125 -15.34375 3.1875 -15.34375 L 4.375 -15.3125 C 5.019531 -15.28125 5.554688 -15.265625 5.984375 -15.265625 C 6.265625 -15.265625 6.523438 -15.269531 6.765625 -15.28125 C 7.003906 -15.300781 7.210938 -15.320312 7.390625 -15.34375 C 7.859375 -15.394531 8.265625 -15.421875 8.609375 -15.421875 C 11.460938 -15.421875 12.890625 -14.535156 12.890625 -12.765625 C 12.890625 -11.765625 12.585938 -10.867188 11.984375 -10.078125 C 11.390625 -9.296875 10.601562 -8.675781 9.625 -8.21875 C 10.394531 -6.238281 11.078125 -4.675781 11.671875 -3.53125 C 12.265625 -2.382812 12.820312 -1.554688 13.34375 -1.046875 C 13.875 -0.546875 14.425781 -0.296875 15 -0.296875 Z M 5.984375 -8.203125 C 6.210938 -8.148438 6.425781 -8.125 6.625 -8.125 C 7.707031 -8.125 8.53125 -8.382812 9.09375 -8.90625 C 9.65625 -9.4375 10.03125 -10.304688 10.21875 -11.515625 C 10.28125 -11.890625 10.3125 -12.253906 10.3125 -12.609375 C 10.3125 -13.398438 10.132812 -13.976562 9.78125 -14.34375 C 9.425781 -14.71875 8.960938 -14.90625 8.390625 -14.90625 C 8.003906 -14.90625 7.726562 -14.875 7.5625 -14.8125 C 7.394531 -14.757812 7.265625 -14.628906 7.171875 -14.421875 C 7.085938 -14.210938 6.992188 -13.835938 6.890625 -13.296875 Z M 5.984375 -8.203125 "/></g></g></g><g fill="#ffffff" fill-opacity="1"><g transform="translate(72.583716, 330.182878)"><g><path d="M 10.1875 -1.890625 C 10.207031 -1.910156 10.234375 -1.921875 10.265625 -1.921875 C 10.304688 -1.921875 10.34375 -1.890625 10.375 -1.828125 C 10.414062 -1.773438 10.421875 -1.726562 10.390625 -1.6875 C 9.335938 -0.414062 8.421875 0.21875 7.640625 0.21875 C 7.210938 0.21875 6.898438 0.101562 6.703125 -0.125 C 6.503906 -0.363281 6.40625 -0.738281 6.40625 -1.25 C 6.40625 -1.53125 6.429688 -1.84375 6.484375 -2.1875 L 6.78125 -3.859375 C 6.15625 -2.546875 5.410156 -1.519531 4.546875 -0.78125 C 3.691406 -0.0507812 2.851562 0.3125 2.03125 0.3125 C 1.53125 0.3125 1.128906 0.160156 0.828125 -0.140625 C 0.535156 -0.453125 0.390625 -0.921875 0.390625 -1.546875 C 0.390625 -2.640625 0.753906 -3.835938 1.484375 -5.140625 C 2.210938 -6.441406 3.113281 -7.539062 4.1875 -8.4375 C 5.257812 -9.34375 6.269531 -9.796875 7.21875 -9.796875 C 7.507812 -9.796875 7.8125 -9.738281 8.125 -9.625 C 8.445312 -9.519531 8.722656 -9.363281 8.953125 -9.15625 C 9.265625 -9.382812 9.519531 -9.660156 9.71875 -9.984375 C 9.75 -10.023438 9.78125 -10.046875 9.8125 -10.046875 C 9.863281 -10.046875 9.914062 -10.023438 9.96875 -9.984375 C 10.019531 -9.953125 10.035156 -9.929688 10.015625 -9.921875 L 8.59375 -2.1875 C 8.539062 -1.96875 8.515625 -1.78125 8.515625 -1.625 C 8.515625 -1.226562 8.628906 -1.03125 8.859375 -1.03125 C 9.171875 -1.03125 9.613281 -1.316406 10.1875 -1.890625 Z M 3.609375 -1.46875 C 4.097656 -1.46875 4.597656 -1.722656 5.109375 -2.234375 C 5.628906 -2.753906 6.082031 -3.382812 6.46875 -4.125 C 6.851562 -4.875 7.101562 -5.566406 7.21875 -6.203125 C 7.269531 -6.484375 7.296875 -6.734375 7.296875 -6.953125 C 7.296875 -7.472656 7.175781 -7.875 6.9375 -8.15625 C 6.695312 -8.445312 6.363281 -8.59375 5.9375 -8.59375 C 5.1875 -8.59375 4.519531 -8.1875 3.9375 -7.375 C 3.351562 -6.5625 2.945312 -5.507812 2.71875 -4.21875 C 2.644531 -3.695312 2.609375 -3.304688 2.609375 -3.046875 C 2.609375 -2.503906 2.695312 -2.101562 2.875 -1.84375 C 3.050781 -1.59375 3.296875 -1.46875 3.609375 -1.46875 Z M 3.609375 -1.46875 "/></g></g></g><g fill="#ffffff" fill-opacity="1"><g transform="translate(90.843031, 330.182878)"><g><path d="M 2.65625 0.265625 C 1.945312 0.265625 1.347656 0.113281 0.859375 -0.1875 C 0.367188 -0.5 0.125 -0.878906 0.125 -1.328125 C 0.125 -1.703125 0.226562 -1.988281 0.4375 -2.1875 C 0.65625 -2.394531 0.921875 -2.5 1.234375 -2.5 C 1.503906 -2.5 1.722656 -2.425781 1.890625 -2.28125 C 2.054688 -2.132812 2.242188 -1.898438 2.453125 -1.578125 C 2.671875 -1.234375 2.875 -0.976562 3.0625 -0.8125 C 3.25 -0.644531 3.503906 -0.5625 3.828125 -0.5625 C 4.109375 -0.5625 4.316406 -0.640625 4.453125 -0.796875 C 4.585938 -0.953125 4.679688 -1.203125 4.734375 -1.546875 C 4.753906 -1.609375 4.765625 -1.707031 4.765625 -1.84375 C 4.765625 -2.3125 4.625 -2.71875 4.34375 -3.0625 C 4.0625 -3.40625 3.628906 -3.804688 3.046875 -4.265625 C 2.453125 -4.753906 2.007812 -5.175781 1.71875 -5.53125 C 1.4375 -5.882812 1.296875 -6.304688 1.296875 -6.796875 C 1.296875 -6.898438 1.3125 -7.046875 1.34375 -7.234375 C 1.425781 -7.648438 1.632812 -8.046875 1.96875 -8.421875 C 2.3125 -8.796875 2.75 -9.101562 3.28125 -9.34375 C 3.8125 -9.59375 4.382812 -9.71875 5 -9.71875 C 5.789062 -9.71875 6.398438 -9.585938 6.828125 -9.328125 C 7.265625 -9.066406 7.457031 -8.707031 7.40625 -8.25 C 7.363281 -7.9375 7.226562 -7.6875 7 -7.5 C 6.78125 -7.320312 6.550781 -7.234375 6.3125 -7.234375 C 5.96875 -7.234375 5.710938 -7.3125 5.546875 -7.46875 C 5.378906 -7.625 5.234375 -7.851562 5.109375 -8.15625 C 4.960938 -8.445312 4.8125 -8.664062 4.65625 -8.8125 C 4.507812 -8.957031 4.273438 -9.03125 3.953125 -9.03125 C 3.691406 -9.03125 3.488281 -8.953125 3.34375 -8.796875 C 3.195312 -8.640625 3.101562 -8.460938 3.0625 -8.265625 C 3.050781 -8.203125 3.046875 -8.109375 3.046875 -7.984375 C 3.046875 -7.554688 3.179688 -7.175781 3.453125 -6.84375 C 3.734375 -6.519531 4.160156 -6.128906 4.734375 -5.671875 C 5.359375 -5.160156 5.816406 -4.722656 6.109375 -4.359375 C 6.398438 -3.992188 6.546875 -3.5625 6.546875 -3.0625 C 6.546875 -2.988281 6.53125 -2.851562 6.5 -2.65625 C 6.414062 -2.207031 6.203125 -1.757812 5.859375 -1.3125 C 5.515625 -0.863281 5.0625 -0.488281 4.5 -0.1875 C 3.9375 0.113281 3.320312 0.265625 2.65625 0.265625 Z M 2.65625 0.265625 "/></g></g></g><g fill="#ffffff" fill-opacity="1"><g transform="translate(105.961353, 330.182878)"><g><path d="M 13.25 -9.71875 C 13.695312 -9.71875 14.03125 -9.570312 14.25 -9.28125 C 14.46875 -8.988281 14.578125 -8.460938 14.578125 -7.703125 C 14.578125 -7.265625 14.5625 -6.90625 14.53125 -6.625 C 14.414062 -5.414062 14.097656 -4.273438 13.578125 -3.203125 C 13.066406 -2.128906 12.4375 -1.273438 11.6875 -0.640625 C 10.945312 -0.00390625 10.207031 0.3125 9.46875 0.3125 C 8.550781 0.3125 7.863281 -0.179688 7.40625 -1.171875 C 6.488281 -0.179688 5.566406 0.3125 4.640625 0.3125 C 3.898438 0.3125 3.328125 0.0820312 2.921875 -0.375 C 2.523438 -0.84375 2.328125 -1.488281 2.328125 -2.3125 C 2.328125 -2.582031 2.351562 -2.875 2.40625 -3.1875 C 2.582031 -4.300781 3.082031 -5.546875 3.90625 -6.921875 C 4.050781 -7.148438 4.125 -7.320312 4.125 -7.4375 C 4.125 -7.550781 4.023438 -7.609375 3.828125 -7.609375 L 2.65625 -7.609375 C 2.082031 -7.609375 1.660156 -7.523438 1.390625 -7.359375 C 1.128906 -7.203125 0.9375 -6.929688 0.8125 -6.546875 C 0.78125 -6.484375 0.726562 -6.453125 0.65625 -6.453125 C 0.613281 -6.453125 0.570312 -6.46875 0.53125 -6.5 C 0.5 -6.53125 0.492188 -6.570312 0.515625 -6.625 C 0.773438 -7.394531 1.003906 -7.972656 1.203125 -8.359375 C 1.410156 -8.753906 1.65625 -9.039062 1.9375 -9.21875 C 2.226562 -9.40625 2.613281 -9.5 3.09375 -9.5 L 5.375 -9.5 C 5.550781 -9.5 5.640625 -9.46875 5.640625 -9.40625 C 5.640625 -9.351562 5.617188 -9.285156 5.578125 -9.203125 C 5.234375 -8.398438 4.914062 -7.578125 4.625 -6.734375 C 4.34375 -5.890625 4.160156 -5.191406 4.078125 -4.640625 C 4.046875 -4.460938 4.03125 -4.21875 4.03125 -3.90625 C 4.03125 -3.1875 4.195312 -2.617188 4.53125 -2.203125 C 4.863281 -1.785156 5.304688 -1.578125 5.859375 -1.578125 C 6.273438 -1.578125 6.695312 -1.75 7.125 -2.09375 C 7.007812 -2.59375 6.953125 -3.203125 6.953125 -3.921875 C 6.953125 -4.742188 7.015625 -5.523438 7.140625 -6.265625 C 7.359375 -7.421875 7.640625 -8.269531 7.984375 -8.8125 C 8.328125 -9.351562 8.75 -9.625 9.25 -9.625 C 9.925781 -9.625 10.265625 -9.148438 10.265625 -8.203125 C 10.265625 -7.921875 10.238281 -7.59375 10.1875 -7.21875 C 10.070312 -6.425781 9.875 -5.640625 9.59375 -4.859375 C 9.320312 -4.078125 8.976562 -3.347656 8.5625 -2.671875 C 9.101562 -1.941406 9.804688 -1.578125 10.671875 -1.578125 C 11.316406 -1.578125 11.894531 -1.878906 12.40625 -2.484375 C 12.925781 -3.097656 13.242188 -3.898438 13.359375 -4.890625 C 13.367188 -5.003906 13.375 -5.164062 13.375 -5.375 C 13.375 -5.769531 13.304688 -6.101562 13.171875 -6.375 C 13.046875 -6.644531 12.835938 -6.941406 12.546875 -7.265625 C 12.328125 -7.492188 12.164062 -7.703125 12.0625 -7.890625 C 11.957031 -8.078125 11.90625 -8.285156 11.90625 -8.515625 C 11.90625 -8.910156 12.03125 -9.207031 12.28125 -9.40625 C 12.539062 -9.613281 12.863281 -9.71875 13.25 -9.71875 Z M 7.734375 -6.4375 C 7.679688 -6.164062 7.65625 -5.878906 7.65625 -5.578125 C 7.65625 -4.785156 7.828125 -4.03125 8.171875 -3.3125 C 8.515625 -3.832031 8.796875 -4.382812 9.015625 -4.96875 C 9.242188 -5.5625 9.359375 -6.085938 9.359375 -6.546875 C 9.359375 -7.140625 9.117188 -7.4375 8.640625 -7.4375 C 8.429688 -7.4375 8.25 -7.363281 8.09375 -7.21875 C 7.9375 -7.070312 7.816406 -6.8125 7.734375 -6.4375 Z M 7.734375 -6.4375 "/></g></g></g><g fill="#ffffff" fill-opacity="1"><g transform="translate(128.735844, 330.182878)"><g><path d="M 10.1875 -1.890625 C 10.207031 -1.910156 10.234375 -1.921875 10.265625 -1.921875 C 10.304688 -1.921875 10.34375 -1.890625 10.375 -1.828125 C 10.414062 -1.773438 10.421875 -1.726562 10.390625 -1.6875 C 9.335938 -0.414062 8.421875 0.21875 7.640625 0.21875 C 7.210938 0.21875 6.898438 0.101562 6.703125 -0.125 C 6.503906 -0.363281 6.40625 -0.738281 6.40625 -1.25 C 6.40625 -1.53125 6.429688 -1.84375 6.484375 -2.1875 L 6.78125 -3.859375 C 6.15625 -2.546875 5.410156 -1.519531 4.546875 -0.78125 C 3.691406 -0.0507812 2.851562 0.3125 2.03125 0.3125 C 1.53125 0.3125 1.128906 0.160156 0.828125 -0.140625 C 0.535156 -0.453125 0.390625 -0.921875 0.390625 -1.546875 C 0.390625 -2.640625 0.753906 -3.835938 1.484375 -5.140625 C 2.210938 -6.441406 3.113281 -7.539062 4.1875 -8.4375 C 5.257812 -9.34375 6.269531 -9.796875 7.21875 -9.796875 C 7.507812 -9.796875 7.8125 -9.738281 8.125 -9.625 C 8.445312 -9.519531 8.722656 -9.363281 8.953125 -9.15625 C 9.265625 -9.382812 9.519531 -9.660156 9.71875 -9.984375 C 9.75 -10.023438 9.78125 -10.046875 9.8125 -10.046875 C 9.863281 -10.046875 9.914062 -10.023438 9.96875 -9.984375 C 10.019531 -9.953125 10.035156 -9.929688 10.015625 -9.921875 L 8.59375 -2.1875 C 8.539062 -1.96875 8.515625 -1.78125 8.515625 -1.625 C 8.515625 -1.226562 8.628906 -1.03125 8.859375 -1.03125 C 9.171875 -1.03125 9.613281 -1.316406 10.1875 -1.890625 Z M 3.609375 -1.46875 C 4.097656 -1.46875 4.597656 -1.722656 5.109375 -2.234375 C 5.628906 -2.753906 6.082031 -3.382812 6.46875 -4.125 C 6.851562 -4.875 7.101562 -5.566406 7.21875 -6.203125 C 7.269531 -6.484375 7.296875 -6.734375 7.296875 -6.953125 C 7.296875 -7.472656 7.175781 -7.875 6.9375 -8.15625 C 6.695312 -8.445312 6.363281 -8.59375 5.9375 -8.59375 C 5.1875 -8.59375 4.519531 -8.1875 3.9375 -7.375 C 3.351562 -6.5625 2.945312 -5.507812 2.71875 -4.21875 C 2.644531 -3.695312 2.609375 -3.304688 2.609375 -3.046875 C 2.609375 -2.503906 2.695312 -2.101562 2.875 -1.84375 C 3.050781 -1.59375 3.296875 -1.46875 3.609375 -1.46875 Z M 3.609375 -1.46875 "/></g></g></g><g fill="#ffffff" fill-opacity="1"><g transform="translate(146.995161, 330.182878)"><g><path d="M 10.953125 -1.890625 C 10.984375 -1.921875 11.003906 -1.9375 11.015625 -1.9375 C 11.066406 -1.9375 11.109375 -1.90625 11.140625 -1.84375 C 11.171875 -1.789062 11.171875 -1.738281 11.140625 -1.6875 C 10.585938 -1.039062 10.09375 -0.5625 9.65625 -0.25 C 9.226562 0.0625 8.785156 0.21875 8.328125 0.21875 C 7.535156 0.21875 7.140625 -0.238281 7.140625 -1.15625 C 7.140625 -1.394531 7.179688 -1.738281 7.265625 -2.1875 L 7.984375 -6.09375 C 8.054688 -6.550781 8.09375 -6.914062 8.09375 -7.1875 C 8.09375 -7.988281 7.832031 -8.390625 7.3125 -8.390625 C 6.851562 -8.390625 6.378906 -8.09375 5.890625 -7.5 C 5.398438 -6.90625 4.9375 -6.035156 4.5 -4.890625 C 4.070312 -3.742188 3.707031 -2.367188 3.40625 -0.765625 L 3.34375 -0.296875 C 3.257812 0.0351562 2.800781 0.203125 1.96875 0.203125 C 1.425781 0.203125 1.15625 0.132812 1.15625 0 L 1.25 -0.515625 C 1.414062 -1.285156 1.503906 -1.71875 1.515625 -1.8125 L 2.53125 -7.296875 C 2.5625 -7.441406 2.578125 -7.617188 2.578125 -7.828125 C 2.578125 -8.273438 2.4375 -8.5 2.15625 -8.5 C 1.8125 -8.5 1.335938 -8.171875 0.734375 -7.515625 C 0.722656 -7.492188 0.695312 -7.484375 0.65625 -7.484375 C 0.613281 -7.484375 0.570312 -7.507812 0.53125 -7.5625 C 0.5 -7.625 0.503906 -7.679688 0.546875 -7.734375 C 1.128906 -8.421875 1.65625 -8.921875 2.125 -9.234375 C 2.59375 -9.546875 3.0625 -9.703125 3.53125 -9.703125 C 4.300781 -9.703125 4.6875 -9.265625 4.6875 -8.390625 C 4.6875 -8.148438 4.660156 -7.878906 4.609375 -7.578125 L 4.21875 -5.34375 C 4.789062 -6.769531 5.445312 -7.867188 6.1875 -8.640625 C 6.9375 -9.410156 7.726562 -9.796875 8.5625 -9.796875 C 9.695312 -9.796875 10.265625 -9.113281 10.265625 -7.75 C 10.265625 -7.445312 10.222656 -7.046875 10.140625 -6.546875 L 9.328125 -2.1875 C 9.273438 -1.9375 9.25 -1.738281 9.25 -1.59375 C 9.25 -1.21875 9.378906 -1.03125 9.640625 -1.03125 C 9.804688 -1.03125 9.988281 -1.101562 10.1875 -1.25 C 10.394531 -1.394531 10.648438 -1.609375 10.953125 -1.890625 Z M 10.953125 -1.890625 "/></g></g></g><g fill="#ffffff" fill-opacity="1"><g transform="translate(166.015183, 330.182878)"><g><path d="M 7.46875 -9.46875 C 7.582031 -9.46875 7.640625 -9.394531 7.640625 -9.25 C 7.640625 -9.125 7.539062 -8.925781 7.34375 -8.65625 C 7.15625 -8.394531 6.984375 -8.265625 6.828125 -8.265625 C 6.773438 -8.265625 6.503906 -8.304688 6.015625 -8.390625 C 5.535156 -8.472656 4.992188 -8.53125 4.390625 -8.5625 L 3.359375 -2.71875 C 3.328125 -2.457031 3.3125 -2.28125 3.3125 -2.1875 C 3.3125 -1.789062 3.410156 -1.503906 3.609375 -1.328125 C 3.816406 -1.148438 4.132812 -1.0625 4.5625 -1.0625 C 5.1875 -1.0625 5.875 -1.363281 6.625 -1.96875 L 6.65625 -1.96875 C 6.71875 -1.96875 6.769531 -1.941406 6.8125 -1.890625 C 6.863281 -1.835938 6.867188 -1.789062 6.828125 -1.75 C 6.066406 -1.019531 5.394531 -0.492188 4.8125 -0.171875 C 4.238281 0.140625 3.664062 0.296875 3.09375 0.296875 C 1.769531 0.296875 1.109375 -0.300781 1.109375 -1.5 C 1.109375 -1.738281 1.128906 -2.007812 1.171875 -2.3125 L 2.140625 -7.515625 C 2.179688 -7.785156 2.203125 -8.015625 2.203125 -8.203125 C 2.203125 -8.441406 2.132812 -8.601562 2 -8.6875 C 1.875 -8.769531 1.640625 -8.8125 1.296875 -8.8125 C 1.253906 -8.8125 1.234375 -8.867188 1.234375 -8.984375 C 1.234375 -9.128906 1.253906 -9.203125 1.296875 -9.203125 C 2.609375 -9.203125 3.648438 -9.921875 4.421875 -11.359375 C 4.453125 -11.410156 4.507812 -11.4375 4.59375 -11.4375 C 4.675781 -11.4375 4.75 -11.421875 4.8125 -11.390625 C 4.875 -11.359375 4.898438 -11.328125 4.890625 -11.296875 L 4.515625 -9.28125 C 4.972656 -9.289062 5.363281 -9.304688 5.6875 -9.328125 C 6.019531 -9.359375 6.300781 -9.382812 6.53125 -9.40625 C 6.957031 -9.445312 7.269531 -9.46875 7.46875 -9.46875 Z M 7.46875 -9.46875 "/></g></g></g><g fill="#ffffff" fill-opacity="1"><g transform="translate(180.765414, 330.182878)"><g><path d="M 10.453125 -1.890625 C 10.484375 -1.921875 10.507812 -1.9375 10.53125 -1.9375 C 10.582031 -1.9375 10.628906 -1.90625 10.671875 -1.84375 C 10.710938 -1.789062 10.707031 -1.738281 10.65625 -1.6875 C 10.09375 -1.039062 9.59375 -0.5625 9.15625 -0.25 C 8.726562 0.0625 8.285156 0.21875 7.828125 0.21875 C 7.046875 0.21875 6.65625 -0.238281 6.65625 -1.15625 C 6.65625 -1.394531 6.695312 -1.738281 6.78125 -2.1875 L 7.484375 -6.09375 C 7.566406 -6.550781 7.609375 -6.914062 7.609375 -7.1875 C 7.609375 -7.988281 7.347656 -8.390625 6.828125 -8.390625 C 6.367188 -8.390625 5.894531 -8.097656 5.40625 -7.515625 C 4.925781 -6.941406 4.46875 -6.085938 4.03125 -4.953125 C 3.601562 -3.828125 3.242188 -2.476562 2.953125 -0.90625 L 2.84375 -0.296875 C 2.757812 0.0351562 2.300781 0.203125 1.46875 0.203125 C 0.925781 0.203125 0.65625 0.132812 0.65625 0 L 0.765625 -0.515625 C 0.921875 -1.285156 1.007812 -1.71875 1.03125 -1.8125 L 3.34375 -14.453125 C 3.382812 -14.785156 3.40625 -15.054688 3.40625 -15.265625 C 3.40625 -15.742188 3.253906 -15.984375 2.953125 -15.984375 C 2.753906 -15.984375 2.410156 -15.867188 1.921875 -15.640625 L 1.890625 -15.640625 C 1.828125 -15.640625 1.78125 -15.679688 1.75 -15.765625 C 1.726562 -15.859375 1.75 -15.914062 1.8125 -15.9375 L 5.625 -17.796875 L 5.671875 -17.796875 C 5.734375 -17.796875 5.789062 -17.769531 5.84375 -17.71875 C 5.90625 -17.675781 5.929688 -17.632812 5.921875 -17.59375 L 3.75 -5.40625 C 4.3125 -6.789062 4.960938 -7.867188 5.703125 -8.640625 C 6.453125 -9.410156 7.242188 -9.796875 8.078125 -9.796875 C 9.203125 -9.796875 9.765625 -9.113281 9.765625 -7.75 C 9.765625 -7.445312 9.722656 -7.046875 9.640625 -6.546875 L 8.84375 -2.1875 C 8.789062 -1.9375 8.765625 -1.738281 8.765625 -1.59375 C 8.765625 -1.21875 8.894531 -1.03125 9.15625 -1.03125 C 9.320312 -1.03125 9.503906 -1.101562 9.703125 -1.25 C 9.910156 -1.394531 10.160156 -1.609375 10.453125 -1.890625 Z M 10.453125 -1.890625 "/></g></g></g><g fill="#ffffff" fill-opacity="1"><g transform="translate(199.294657, 330.182878)"><g/></g></g><g fill="#ffffff" fill-opacity="1"><g transform="translate(212.400784, 330.182878)"><g><path d="M 4.71875 0.296875 C 3.382812 0.296875 2.128906 0.015625 0.953125 -0.546875 C 0.796875 -0.660156 0.75 -0.8125 0.8125 -1 L 1.59375 -4.46875 C 1.59375 -4.550781 1.632812 -4.59375 1.71875 -4.59375 C 1.8125 -4.59375 1.867188 -4.550781 1.890625 -4.46875 C 2.492188 -1.6875 3.65625 -0.296875 5.375 -0.296875 C 6.175781 -0.296875 6.828125 -0.578125 7.328125 -1.140625 C 7.828125 -1.703125 8.078125 -2.453125 8.078125 -3.390625 C 8.078125 -4.171875 7.847656 -4.847656 7.390625 -5.421875 C 6.941406 -5.992188 6.296875 -6.609375 5.453125 -7.265625 C 4.828125 -7.742188 4.332031 -8.144531 3.96875 -8.46875 C 3.613281 -8.789062 3.3125 -9.171875 3.0625 -9.609375 C 2.820312 -10.054688 2.703125 -10.550781 2.703125 -11.09375 C 2.703125 -11.320312 2.726562 -11.5625 2.78125 -11.8125 C 3.039062 -13.03125 3.6875 -13.96875 4.71875 -14.625 C 5.757812 -15.28125 6.9375 -15.609375 8.25 -15.609375 C 9.21875 -15.609375 10.179688 -15.410156 11.140625 -15.015625 C 11.367188 -14.898438 11.460938 -14.765625 11.421875 -14.609375 L 11.046875 -11.421875 C 11.023438 -11.367188 10.976562 -11.34375 10.90625 -11.34375 C 10.832031 -11.34375 10.789062 -11.367188 10.78125 -11.421875 C 10.519531 -12.554688 10.101562 -13.453125 9.53125 -14.109375 C 8.957031 -14.765625 8.304688 -15.09375 7.578125 -15.09375 C 7.023438 -15.09375 6.566406 -14.941406 6.203125 -14.640625 C 5.847656 -14.335938 5.585938 -13.976562 5.421875 -13.5625 C 5.253906 -13.144531 5.171875 -12.738281 5.171875 -12.34375 C 5.171875 -11.851562 5.285156 -11.410156 5.515625 -11.015625 C 5.742188 -10.628906 6.015625 -10.289062 6.328125 -10 C 6.640625 -9.71875 7.109375 -9.332031 7.734375 -8.84375 C 8.703125 -8.082031 9.4375 -7.390625 9.9375 -6.765625 C 10.445312 -6.148438 10.703125 -5.414062 10.703125 -4.5625 C 10.703125 -4.28125 10.6875 -4.066406 10.65625 -3.921875 C 10.425781 -2.679688 9.796875 -1.664062 8.765625 -0.875 C 7.734375 -0.09375 6.382812 0.296875 4.71875 0.296875 Z M 4.71875 0.296875 "/></g></g></g><g fill="#ffffff" fill-opacity="1"><g transform="translate(231.298115, 330.182878)"><g><path d="M 10.1875 -1.890625 C 10.207031 -1.910156 10.234375 -1.921875 10.265625 -1.921875 C 10.304688 -1.921875 10.34375 -1.890625 10.375 -1.828125 C 10.414062 -1.773438 10.421875 -1.726562 10.390625 -1.6875 C 9.335938 -0.414062 8.421875 0.21875 7.640625 0.21875 C 7.210938 0.21875 6.898438 0.101562 6.703125 -0.125 C 6.503906 -0.363281 6.40625 -0.738281 6.40625 -1.25 C 6.40625 -1.53125 6.429688 -1.84375 6.484375 -2.1875 L 6.78125 -3.859375 C 6.15625 -2.546875 5.410156 -1.519531 4.546875 -0.78125 C 3.691406 -0.0507812 2.851562 0.3125 2.03125 0.3125 C 1.53125 0.3125 1.128906 0.160156 0.828125 -0.140625 C 0.535156 -0.453125 0.390625 -0.921875 0.390625 -1.546875 C 0.390625 -2.640625 0.753906 -3.835938 1.484375 -5.140625 C 2.210938 -6.441406 3.113281 -7.539062 4.1875 -8.4375 C 5.257812 -9.34375 6.269531 -9.796875 7.21875 -9.796875 C 7.507812 -9.796875 7.8125 -9.738281 8.125 -9.625 C 8.445312 -9.519531 8.722656 -9.363281 8.953125 -9.15625 C 9.265625 -9.382812 9.519531 -9.660156 9.71875 -9.984375 C 9.75 -10.023438 9.78125 -10.046875 9.8125 -10.046875 C 9.863281 -10.046875 9.914062 -10.023438 9.96875 -9.984375 C 10.019531 -9.953125 10.035156 -9.929688 10.015625 -9.921875 L 8.59375 -2.1875 C 8.539062 -1.96875 8.515625 -1.78125 8.515625 -1.625 C 8.515625 -1.226562 8.628906 -1.03125 8.859375 -1.03125 C 9.171875 -1.03125 9.613281 -1.316406 10.1875 -1.890625 Z M 3.609375 -1.46875 C 4.097656 -1.46875 4.597656 -1.722656 5.109375 -2.234375 C 5.628906 -2.753906 6.082031 -3.382812 6.46875 -4.125 C 6.851562 -4.875 7.101562 -5.566406 7.21875 -6.203125 C 7.269531 -6.484375 7.296875 -6.734375 7.296875 -6.953125 C 7.296875 -7.472656 7.175781 -7.875 6.9375 -8.15625 C 6.695312 -8.445312 6.363281 -8.59375 5.9375 -8.59375 C 5.1875 -8.59375 4.519531 -8.1875 3.9375 -7.375 C 3.351562 -6.5625 2.945312 -5.507812 2.71875 -4.21875 C 2.644531 -3.695312 2.609375 -3.304688 2.609375 -3.046875 C 2.609375 -2.503906 2.695312 -2.101562 2.875 -1.84375 C 3.050781 -1.59375 3.296875 -1.46875 3.609375 -1.46875 Z M 3.609375 -1.46875 "/></g></g></g><g fill="#ffffff" fill-opacity="1"><g transform="translate(249.557436, 330.182878)"><g><path d="M 8.640625 -9.796875 C 9.273438 -9.796875 9.769531 -9.550781 10.125 -9.0625 C 10.488281 -8.582031 10.671875 -7.9375 10.671875 -7.125 C 10.671875 -6.820312 10.648438 -6.5 10.609375 -6.15625 C 10.359375 -4.832031 9.847656 -3.679688 9.078125 -2.703125 C 8.304688 -1.722656 7.429688 -0.972656 6.453125 -0.453125 C 5.484375 0.0546875 4.59375 0.3125 3.78125 0.3125 C 2.914062 0.3125 2.238281 0.140625 1.75 -0.203125 C 1.269531 -0.554688 1.03125 -1.046875 1.03125 -1.671875 C 1.03125 -1.785156 1.046875 -1.941406 1.078125 -2.140625 L 3.34375 -14.453125 C 3.382812 -14.785156 3.40625 -15.054688 3.40625 -15.265625 C 3.40625 -15.742188 3.253906 -15.984375 2.953125 -15.984375 C 2.753906 -15.984375 2.410156 -15.867188 1.921875 -15.640625 L 1.890625 -15.640625 C 1.828125 -15.640625 1.78125 -15.679688 1.75 -15.765625 C 1.726562 -15.859375 1.75 -15.914062 1.8125 -15.9375 L 5.625 -17.796875 L 5.671875 -17.796875 C 5.734375 -17.796875 5.789062 -17.769531 5.84375 -17.71875 C 5.90625 -17.675781 5.929688 -17.632812 5.921875 -17.59375 L 3.8125 -5.71875 C 4.375 -6.945312 5.082031 -7.929688 5.9375 -8.671875 C 6.800781 -9.421875 7.703125 -9.796875 8.640625 -9.796875 Z M 8.171875 -5.40625 C 8.253906 -5.75 8.296875 -6.128906 8.296875 -6.546875 C 8.296875 -7.046875 8.207031 -7.4375 8.03125 -7.71875 C 7.863281 -8.007812 7.597656 -8.15625 7.234375 -8.15625 C 6.335938 -8.15625 5.519531 -7.617188 4.78125 -6.546875 C 4.050781 -5.472656 3.53125 -4.078125 3.21875 -2.359375 C 3.195312 -2.273438 3.1875 -2.144531 3.1875 -1.96875 C 3.1875 -1.507812 3.328125 -1.128906 3.609375 -0.828125 C 3.898438 -0.523438 4.257812 -0.375 4.6875 -0.375 C 5.175781 -0.375 5.65625 -0.570312 6.125 -0.96875 C 6.601562 -1.375 7.019531 -1.957031 7.375 -2.71875 C 7.738281 -3.476562 8.003906 -4.375 8.171875 -5.40625 Z M 8.171875 -5.40625 "/></g></g></g><g fill="#ffffff" fill-opacity="1"><g transform="translate(267.988535, 330.182878)"><g><path d="M 10.1875 -1.890625 C 10.207031 -1.910156 10.234375 -1.921875 10.265625 -1.921875 C 10.304688 -1.921875 10.34375 -1.890625 10.375 -1.828125 C 10.414062 -1.773438 10.421875 -1.726562 10.390625 -1.6875 C 9.335938 -0.414062 8.421875 0.21875 7.640625 0.21875 C 7.210938 0.21875 6.898438 0.101562 6.703125 -0.125 C 6.503906 -0.363281 6.40625 -0.738281 6.40625 -1.25 C 6.40625 -1.53125 6.429688 -1.84375 6.484375 -2.1875 L 6.78125 -3.859375 C 6.15625 -2.546875 5.410156 -1.519531 4.546875 -0.78125 C 3.691406 -0.0507812 2.851562 0.3125 2.03125 0.3125 C 1.53125 0.3125 1.128906 0.160156 0.828125 -0.140625 C 0.535156 -0.453125 0.390625 -0.921875 0.390625 -1.546875 C 0.390625 -2.640625 0.753906 -3.835938 1.484375 -5.140625 C 2.210938 -6.441406 3.113281 -7.539062 4.1875 -8.4375 C 5.257812 -9.34375 6.269531 -9.796875 7.21875 -9.796875 C 7.507812 -9.796875 7.8125 -9.738281 8.125 -9.625 C 8.445312 -9.519531 8.722656 -9.363281 8.953125 -9.15625 C 9.265625 -9.382812 9.519531 -9.660156 9.71875 -9.984375 C 9.75 -10.023438 9.78125 -10.046875 9.8125 -10.046875 C 9.863281 -10.046875 9.914062 -10.023438 9.96875 -9.984375 C 10.019531 -9.953125 10.035156 -9.929688 10.015625 -9.921875 L 8.59375 -2.1875 C 8.539062 -1.96875 8.515625 -1.78125 8.515625 -1.625 C 8.515625 -1.226562 8.628906 -1.03125 8.859375 -1.03125 C 9.171875 -1.03125 9.613281 -1.316406 10.1875 -1.890625 Z M 3.609375 -1.46875 C 4.097656 -1.46875 4.597656 -1.722656 5.109375 -2.234375 C 5.628906 -2.753906 6.082031 -3.382812 6.46875 -4.125 C 6.851562 -4.875 7.101562 -5.566406 7.21875 -6.203125 C 7.269531 -6.484375 7.296875 -6.734375 7.296875 -6.953125 C 7.296875 -7.472656 7.175781 -7.875 6.9375 -8.15625 C 6.695312 -8.445312 6.363281 -8.59375 5.9375 -8.59375 C 5.1875 -8.59375 4.519531 -8.1875 3.9375 -7.375 C 3.351562 -6.5625 2.945312 -5.507812 2.71875 -4.21875 C 2.644531 -3.695312 2.609375 -3.304688 2.609375 -3.046875 C 2.609375 -2.503906 2.695312 -2.101562 2.875 -1.84375 C 3.050781 -1.59375 3.296875 -1.46875 3.609375 -1.46875 Z M 3.609375 -1.46875 "/></g></g></g><g fill="#ffffff" fill-opacity="1"><g transform="translate(286.247856, 330.182878)"><g><path d="M 7.296875 -9.703125 C 7.710938 -9.703125 8.113281 -9.546875 8.5 -9.234375 C 8.882812 -8.921875 9.046875 -8.566406 8.984375 -8.171875 C 8.953125 -7.929688 8.835938 -7.703125 8.640625 -7.484375 C 8.441406 -7.273438 8.195312 -7.171875 7.90625 -7.171875 C 7.613281 -7.171875 7.296875 -7.304688 6.953125 -7.578125 C 6.835938 -7.660156 6.722656 -7.734375 6.609375 -7.796875 C 6.492188 -7.867188 6.378906 -7.90625 6.265625 -7.90625 C 5.984375 -7.90625 5.632812 -7.46875 5.21875 -6.59375 C 4.8125 -5.726562 4.425781 -4.691406 4.0625 -3.484375 C 3.695312 -2.285156 3.429688 -1.226562 3.265625 -0.3125 L 3.265625 -0.296875 C 3.234375 -0.148438 3.101562 -0.03125 2.875 0.0625 C 2.644531 0.15625 2.316406 0.203125 1.890625 0.203125 C 1.347656 0.203125 1.078125 0.132812 1.078125 0 C 1.097656 -0.113281 1.148438 -0.359375 1.234375 -0.734375 C 1.328125 -1.109375 1.40625 -1.46875 1.46875 -1.8125 L 2.484375 -7.296875 C 2.515625 -7.554688 2.53125 -7.726562 2.53125 -7.8125 C 2.53125 -8.269531 2.382812 -8.5 2.09375 -8.5 C 1.757812 -8.5 1.289062 -8.171875 0.6875 -7.515625 C 0.664062 -7.492188 0.640625 -7.484375 0.609375 -7.484375 C 0.546875 -7.484375 0.5 -7.507812 0.46875 -7.5625 C 0.4375 -7.625 0.441406 -7.679688 0.484375 -7.734375 C 1.078125 -8.421875 1.609375 -8.921875 2.078125 -9.234375 C 2.546875 -9.546875 3.015625 -9.703125 3.484375 -9.703125 C 3.890625 -9.703125 4.179688 -9.585938 4.359375 -9.359375 C 4.546875 -9.140625 4.640625 -8.816406 4.640625 -8.390625 C 4.640625 -8.148438 4.613281 -7.878906 4.5625 -7.578125 L 4.078125 -4.890625 C 5.035156 -8.097656 6.109375 -9.703125 7.296875 -9.703125 Z M 7.296875 -9.703125 "/></g></g></g><g fill="#ffffff" fill-opacity="1"><g transform="translate(302.347747, 330.182878)"><g><path d="M 4.25 -12.25 C 3.820312 -12.25 3.476562 -12.375 3.21875 -12.625 C 2.96875 -12.882812 2.84375 -13.234375 2.84375 -13.671875 C 2.84375 -14.066406 2.96875 -14.382812 3.21875 -14.625 C 3.476562 -14.875 3.820312 -15 4.25 -15 C 4.675781 -15 5.003906 -14.875 5.234375 -14.625 C 5.472656 -14.382812 5.59375 -14.066406 5.59375 -13.671875 C 5.59375 -13.210938 5.472656 -12.859375 5.234375 -12.609375 C 5.003906 -12.367188 4.675781 -12.25 4.25 -12.25 Z M 2.609375 0.21875 C 1.816406 0.21875 1.421875 -0.238281 1.421875 -1.15625 C 1.421875 -1.394531 1.460938 -1.738281 1.546875 -2.1875 L 2.546875 -7.296875 C 2.597656 -7.523438 2.625 -7.710938 2.625 -7.859375 C 2.625 -8.066406 2.582031 -8.222656 2.5 -8.328125 C 2.414062 -8.441406 2.3125 -8.5 2.1875 -8.5 C 1.84375 -8.5 1.375 -8.171875 0.78125 -7.515625 C 0.769531 -7.492188 0.75 -7.484375 0.71875 -7.484375 C 0.644531 -7.484375 0.59375 -7.507812 0.5625 -7.5625 C 0.53125 -7.625 0.53125 -7.679688 0.5625 -7.734375 C 1.15625 -8.421875 1.6875 -8.921875 2.15625 -9.234375 C 2.632812 -9.546875 3.101562 -9.703125 3.5625 -9.703125 C 4.34375 -9.703125 4.734375 -9.273438 4.734375 -8.421875 C 4.734375 -8.140625 4.703125 -7.859375 4.640625 -7.578125 L 3.609375 -2.1875 C 3.578125 -2.039062 3.5625 -1.851562 3.5625 -1.625 C 3.5625 -1.226562 3.679688 -1.03125 3.921875 -1.03125 C 4.085938 -1.03125 4.269531 -1.101562 4.46875 -1.25 C 4.675781 -1.394531 4.929688 -1.609375 5.234375 -1.890625 C 5.265625 -1.921875 5.296875 -1.9375 5.328125 -1.9375 C 5.378906 -1.9375 5.421875 -1.90625 5.453125 -1.84375 C 5.484375 -1.789062 5.472656 -1.738281 5.421875 -1.6875 C 4.867188 -1.039062 4.375 -0.5625 3.9375 -0.25 C 3.507812 0.0625 3.066406 0.21875 2.609375 0.21875 Z M 2.609375 0.21875 "/></g></g></g><g fill="#ffffff" fill-opacity="1"><g transform="translate(315.772879, 330.182878)"><g><path d="M 2.65625 0.265625 C 1.945312 0.265625 1.347656 0.113281 0.859375 -0.1875 C 0.367188 -0.5 0.125 -0.878906 0.125 -1.328125 C 0.125 -1.703125 0.226562 -1.988281 0.4375 -2.1875 C 0.65625 -2.394531 0.921875 -2.5 1.234375 -2.5 C 1.503906 -2.5 1.722656 -2.425781 1.890625 -2.28125 C 2.054688 -2.132812 2.242188 -1.898438 2.453125 -1.578125 C 2.671875 -1.234375 2.875 -0.976562 3.0625 -0.8125 C 3.25 -0.644531 3.503906 -0.5625 3.828125 -0.5625 C 4.109375 -0.5625 4.316406 -0.640625 4.453125 -0.796875 C 4.585938 -0.953125 4.679688 -1.203125 4.734375 -1.546875 C 4.753906 -1.609375 4.765625 -1.707031 4.765625 -1.84375 C 4.765625 -2.3125 4.625 -2.71875 4.34375 -3.0625 C 4.0625 -3.40625 3.628906 -3.804688 3.046875 -4.265625 C 2.453125 -4.753906 2.007812 -5.175781 1.71875 -5.53125 C 1.4375 -5.882812 1.296875 -6.304688 1.296875 -6.796875 C 1.296875 -6.898438 1.3125 -7.046875 1.34375 -7.234375 C 1.425781 -7.648438 1.632812 -8.046875 1.96875 -8.421875 C 2.3125 -8.796875 2.75 -9.101562 3.28125 -9.34375 C 3.8125 -9.59375 4.382812 -9.71875 5 -9.71875 C 5.789062 -9.71875 6.398438 -9.585938 6.828125 -9.328125 C 7.265625 -9.066406 7.457031 -8.707031 7.40625 -8.25 C 7.363281 -7.9375 7.226562 -7.6875 7 -7.5 C 6.78125 -7.320312 6.550781 -7.234375 6.3125 -7.234375 C 5.96875 -7.234375 5.710938 -7.3125 5.546875 -7.46875 C 5.378906 -7.625 5.234375 -7.851562 5.109375 -8.15625 C 4.960938 -8.445312 4.8125 -8.664062 4.65625 -8.8125 C 4.507812 -8.957031 4.273438 -9.03125 3.953125 -9.03125 C 3.691406 -9.03125 3.488281 -8.953125 3.34375 -8.796875 C 3.195312 -8.640625 3.101562 -8.460938 3.0625 -8.265625 C 3.050781 -8.203125 3.046875 -8.109375 3.046875 -7.984375 C 3.046875 -7.554688 3.179688 -7.175781 3.453125 -6.84375 C 3.734375 -6.519531 4.160156 -6.128906 4.734375 -5.671875 C 5.359375 -5.160156 5.816406 -4.722656 6.109375 -4.359375 C 6.398438 -3.992188 6.546875 -3.5625 6.546875 -3.0625 C 6.546875 -2.988281 6.53125 -2.851562 6.5 -2.65625 C 6.414062 -2.207031 6.203125 -1.757812 5.859375 -1.3125 C 5.515625 -0.863281 5.0625 -0.488281 4.5 -0.1875 C 3.9375 0.113281 3.320312 0.265625 2.65625 0.265625 Z M 2.65625 0.265625 "/></g></g></g><g fill="#ffffff" fill-opacity="1"><g transform="translate(330.89121, 330.182878)"><g><path d="M 10.453125 -1.890625 C 10.484375 -1.921875 10.507812 -1.9375 10.53125 -1.9375 C 10.582031 -1.9375 10.628906 -1.90625 10.671875 -1.84375 C 10.710938 -1.789062 10.707031 -1.738281 10.65625 -1.6875 C 10.09375 -1.039062 9.59375 -0.5625 9.15625 -0.25 C 8.726562 0.0625 8.285156 0.21875 7.828125 0.21875 C 7.046875 0.21875 6.65625 -0.238281 6.65625 -1.15625 C 6.65625 -1.394531 6.695312 -1.738281 6.78125 -2.1875 L 7.484375 -6.09375 C 7.566406 -6.550781 7.609375 -6.914062 7.609375 -7.1875 C 7.609375 -7.988281 7.347656 -8.390625 6.828125 -8.390625 C 6.367188 -8.390625 5.894531 -8.097656 5.40625 -7.515625 C 4.925781 -6.941406 4.46875 -6.085938 4.03125 -4.953125 C 3.601562 -3.828125 3.242188 -2.476562 2.953125 -0.90625 L 2.84375 -0.296875 C 2.757812 0.0351562 2.300781 0.203125 1.46875 0.203125 C 0.925781 0.203125 0.65625 0.132812 0.65625 0 L 0.765625 -0.515625 C 0.921875 -1.285156 1.007812 -1.71875 1.03125 -1.8125 L 3.34375 -14.453125 C 3.382812 -14.785156 3.40625 -15.054688 3.40625 -15.265625 C 3.40625 -15.742188 3.253906 -15.984375 2.953125 -15.984375 C 2.753906 -15.984375 2.410156 -15.867188 1.921875 -15.640625 L 1.890625 -15.640625 C 1.828125 -15.640625 1.78125 -15.679688 1.75 -15.765625 C 1.726562 -15.859375 1.75 -15.914062 1.8125 -15.9375 L 5.625 -17.796875 L 5.671875 -17.796875 C 5.734375 -17.796875 5.789062 -17.769531 5.84375 -17.71875 C 5.90625 -17.675781 5.929688 -17.632812 5.921875 -17.59375 L 3.75 -5.40625 C 4.3125 -6.789062 4.960938 -7.867188 5.703125 -8.640625 C 6.453125 -9.410156 7.242188 -9.796875 8.078125 -9.796875 C 9.203125 -9.796875 9.765625 -9.113281 9.765625 -7.75 C 9.765625 -7.445312 9.722656 -7.046875 9.640625 -6.546875 L 8.84375 -2.1875 C 8.789062 -1.9375 8.765625 -1.738281 8.765625 -1.59375 C 8.765625 -1.21875 8.894531 -1.03125 9.15625 -1.03125 C 9.320312 -1.03125 9.503906 -1.101562 9.703125 -1.25 C 9.910156 -1.394531 10.160156 -1.609375 10.453125 -1.890625 Z M 10.453125 -1.890625 "/></g></g></g></svg>